# xmcd
#
# Track frame offsets: 
#        150
#        15832
#        36152
#        53010
#        72065
#        95290
#        117515
#        136737
#        149375
#        165562
#
# Disc length: 2521 seconds
#
# Revision: 0
# Processed by: cddbd v1.5.1PL0 Copyright (c) Steve Scherf et al.
# Submitted via: ExactAudioCopy v0.95a5
#
DISCID=7909d70a
DTITLE=圣女合唱组 - 绣荷包
DYEAR=1995
DGENRE=Chorus
TTITLE0=绣荷包（云南民歌）
TTITLE1=我想亲亲在梦中（陕北民歌）
TTITLE2=三十里铺（陕北民歌）
TTITLE3=可爱的一朵玫瑰花（新疆民歌）
TTITLE4=半个月亮爬上来（青海民歌）
TTITLE5=兰花花（陕北民歌）
TTITLE6=康定情歌（四川民歌）
TTITLE7=绣荷包（陕北民歌）
TTITLE8=灯碗碗开花在窗台（山西民歌）
TTITLE9=小河淌水（云南民歌）
EXTD=
EXTT0=
EXTT1=
EXTT2=
EXTT3=
EXTT4=
EXTT5=
EXTT6=
EXTT7=
EXTT8=
EXTT9=
PLAYORDER=
